<svg width="49" height="48" viewBox="0 0 49 48" fill="none" xmlns="http://www.w3.org/2000/svg">
<path d="M22.0803 2.27057L21.1633 5.32907C22.3813 5.08045 23.6404 4.95107 24.9311 4.95107C25.9131 4.95107 26.8779 5.02795 27.8195 5.17382L26.9378 2.27039H22.0803V2.27057ZM24.9309 6.84961C15.5909 6.84961 8.03809 14.3993 8.03809 23.7392C8.03809 33.079 15.5909 40.6288 24.9309 40.6288C34.2706 40.6288 41.8204 33.0791 41.8204 23.7391C41.8204 14.3991 34.2707 6.84942 24.9308 6.84942L24.9309 6.84961ZM24.9309 10.7578C32.1011 10.7578 37.9122 16.5689 37.9122 23.7393C37.9122 30.9095 32.1011 36.7237 24.9308 36.7237C17.7603 36.7237 11.9464 30.9095 11.9464 23.7393C11.9464 16.5689 17.7603 10.7578 24.9308 10.7578H24.9309ZM24.9278 14.4082C19.7753 14.4082 15.5969 18.5838 15.5969 23.7363C15.5969 28.8888 19.7753 33.0645 24.9278 33.0645C30.0803 33.0645 34.2559 28.8888 34.2559 23.7363C34.2559 18.5838 30.0803 14.4082 24.9278 14.4082ZM24.9308 18.1289C28.0294 18.1289 30.541 20.6404 30.541 23.7392C30.541 26.8379 28.0294 29.3495 24.9307 29.3495C21.8318 29.3495 19.3202 26.8379 19.3202 23.7391C19.3202 20.6402 21.8318 18.1287 24.9306 18.1287L24.9308 18.1289ZM24.9308 21.0263C23.4315 21.0263 22.2149 22.2401 22.2149 23.7394C22.2149 25.2385 23.4315 26.4552 24.9308 26.4552C26.4299 26.4552 27.6436 25.2386 27.6436 23.7392C27.6436 22.2402 26.43 21.0264 24.9307 21.0264L24.9308 21.0263ZM11.6593 37.0312L9.0489 45.7382H13.4435L15.3448 39.8964C14.0027 39.0972 12.7647 38.1348 11.6593 37.0312ZM37.6456 37.5644C36.5174 38.602 35.2669 39.4982 33.9219 40.2333L35.7266 45.7383H40.1241L37.6457 37.5644H37.6456ZM22.1741 42.3251V45.7382H27.0577V42.4073C26.3515 42.4871 25.6415 42.5272 24.9308 42.5273C23.9942 42.5273 23.0736 42.4579 22.1738 42.3252L22.1741 42.3251Z" fill="#540D6E"/>
</svg>
