<svg width="261" height="32" viewBox="0 0 261 32" fill="none" xmlns="http://www.w3.org/2000/svg">
<g clip-path="url(#clip0_527_374)">
<path d="M78.1498 15.8561C78.16 16.8953 77.8976 17.9252 77.3785 18.883C76.6194 20.2932 75.3377 21.4964 73.6965 22.3395C72.0552 23.1826 70.1284 23.6277 68.1609 23.6182H56.3164V21.3945H68.1609C69.4258 21.4049 70.6701 21.1443 71.757 20.6414C72.8206 20.1536 73.7078 19.4644 74.3357 18.6381C74.9768 17.7963 75.3088 16.8342 75.2956 15.8561V10.3087H56.3164V8.09137H78.1498V15.8561Z" fill="#3A3A3A"/>
<path d="M100.154 17.5143C100.163 18.3252 99.9588 19.1289 99.5542 19.8765C98.762 21.3375 97.2749 22.5049 95.4025 23.1355C94.4431 23.4559 93.4086 23.618 92.3644 23.6118H87.9688C86.9238 23.6181 85.8885 23.456 84.9283 23.1355C83.9991 22.8241 83.1561 22.376 82.4457 21.8161C81.7356 21.2579 81.1691 20.5996 80.7766 19.8765C79.9765 18.3634 79.9765 16.6662 80.7766 15.1531C81.1693 14.4308 81.7354 13.7732 82.4446 13.2153C83.1549 12.6554 83.9979 12.2073 84.9271 11.8959C85.8873 11.5751 86.9226 11.4127 87.9677 11.4187H92.3644C93.4091 11.4127 94.444 11.5751 95.4037 11.8959C96.3328 12.207 97.1755 12.655 97.8851 13.2153C98.5957 13.7732 99.1623 14.4316 99.5542 15.1549C99.9583 15.9016 100.163 16.7044 100.154 17.5143ZM97.3002 17.5143C97.3098 16.8337 97.0831 16.1637 96.6438 15.5747C96.2117 14.996 95.598 14.5116 94.8598 14.1669C94.1079 13.812 93.243 13.6277 92.3632 13.6351H87.9677C87.0918 13.6269 86.2307 13.8112 85.4839 14.1669C84.7503 14.5158 84.1381 14.9992 83.7011 15.5747C83.2611 16.1642 83.0294 16.8334 83.0294 17.5148C83.0294 18.1962 83.2611 18.8654 83.7011 19.4548C84.1378 20.031 84.75 20.5151 85.4839 20.8645C86.2307 21.2202 87.0918 21.4045 87.9677 21.3963H92.3644C93.2442 21.4037 94.1091 21.2194 94.861 20.8645C95.5991 20.5198 96.2129 20.0354 96.645 19.4567C97.0842 18.8668 97.3106 18.1958 97.3002 17.5143Z" fill="#3A3A3A"/>
<path d="M120.847 23.6118H117.993V17.5107C118.003 16.8301 117.776 16.16 117.337 15.5711C116.905 14.9919 116.291 14.5075 115.553 14.1633C114.801 13.8083 113.936 13.6241 113.056 13.6315H105.203V23.6118H102.352V6.98312H105.206V11.4169H113.06C114.104 11.4108 115.139 11.5733 116.099 11.894C117.027 12.206 117.868 12.6547 118.577 13.2153C119.287 13.7734 119.854 14.4317 120.247 15.1549C120.651 15.9024 120.854 16.7057 120.846 17.5161L120.847 23.6118Z" fill="#3A3A3A"/>
<path d="M126.639 23.6118H123.786V11.4169H134.488C135.533 11.4108 136.568 11.5733 137.528 11.894C138.458 12.2056 139.301 12.6543 140.01 13.2153C140.721 13.7732 141.288 14.4316 141.679 15.1549C142.084 15.9022 142.288 16.7056 142.28 17.5161V23.6172H139.425V17.5161C139.435 16.8355 139.208 16.1655 138.769 15.5765C138.337 14.9976 137.723 14.5132 136.985 14.1687C136.233 13.8138 135.368 13.6296 134.488 13.6369H126.635L126.639 23.6118Z" fill="#3A3A3A"/>
<path d="M173.242 23.6118H160.374C159.077 23.6268 157.792 23.4227 156.607 23.0135C155.501 22.6242 154.513 22.0575 153.709 21.3507C152.89 20.6264 152.255 19.7873 151.84 18.8784C150.965 16.9256 150.965 14.8003 151.84 12.8475C152.257 11.9361 152.892 11.0938 153.709 10.3642C154.51 9.65197 155.498 9.081 156.607 8.68962C157.792 8.28047 159.077 8.07633 160.374 8.09135H173.242V10.3087H160.374C159.061 10.3087 157.934 10.5564 156.992 11.0517C156.043 11.5527 155.288 12.2454 154.809 13.0551C154.285 13.9297 154.022 14.8845 154.038 15.8488C154.021 16.8098 154.284 17.7612 154.809 18.6317C155.294 19.4388 156.048 20.1304 156.992 20.635C157.93 21.1377 159.057 21.3887 160.374 21.3881H170.391V16.9607H158.29V14.7434H173.242V23.6118Z" fill="#3A3A3A"/>
<path d="M193.708 17.5143C193.717 18.3251 193.513 19.1287 193.109 19.8765C192.717 20.5996 192.15 21.2579 191.44 21.8161C190.73 22.3763 189.886 22.8243 188.957 23.1355C187.997 23.4561 186.962 23.6183 185.917 23.6118H181.523C180.478 23.6182 179.442 23.4561 178.482 23.1355C176.61 22.5045 175.123 21.3373 174.329 19.8765C173.531 18.3631 173.531 16.6664 174.329 15.1531C174.722 14.4299 175.289 13.7716 176 13.2135C176.71 12.6535 177.553 12.2055 178.482 11.8941C179.442 11.5732 180.478 11.4107 181.523 11.4169H185.917C186.962 11.4106 187.997 11.5731 188.957 11.8941C189.886 12.2058 190.73 12.6545 191.44 13.2153C192.15 13.7737 192.717 14.4319 193.109 15.1549C193.513 15.9018 193.716 16.7045 193.708 17.5143ZM190.855 17.5143C190.865 16.8337 190.638 16.1637 190.199 15.5747C189.767 14.996 189.153 14.5116 188.415 14.1669C187.663 13.8119 186.797 13.6277 185.917 13.6351H181.523C180.647 13.6266 179.786 13.811 179.039 14.1669C178.305 14.5157 177.693 14.9991 177.255 15.5747C176.816 16.1644 176.585 16.8336 176.585 17.5148C176.585 18.196 176.816 18.8652 177.255 19.4548C177.692 20.0311 178.305 20.5151 179.039 20.8645C179.786 21.2204 180.647 21.4048 181.523 21.3963H185.917C186.797 21.4037 187.663 21.2195 188.415 20.8645C189.153 20.5198 189.767 20.0354 190.199 19.4567C190.639 18.8669 190.865 18.1959 190.855 17.5143Z" fill="#3A3A3A"/>
<path d="M212.289 19.7317C212.301 20.4213 212.069 21.1002 211.618 21.694C211.181 22.2707 210.562 22.7515 209.819 23.0909C209.055 23.4412 208.182 23.6214 207.295 23.6118H195.161V21.3945H207.291C207.859 21.3945 208.403 21.2193 208.805 20.9074C209.206 20.5956 209.431 20.1727 209.431 19.7317C209.431 19.2907 209.206 18.8677 208.805 18.5559C208.403 18.2441 207.859 18.0689 207.291 18.0689H199.438C198.87 18.0762 198.305 17.9956 197.778 17.8317C197.25 17.6678 196.77 17.424 196.364 17.1144C195.959 16.8049 195.638 16.4357 195.418 16.0286C195.198 15.6214 195.085 15.1844 195.085 14.7429C195.085 14.3014 195.198 13.8644 195.418 13.4572C195.638 13.0501 195.959 12.6809 196.364 12.3714C196.77 12.0618 197.25 11.818 197.778 11.6541C198.305 11.4902 198.87 11.4096 199.438 11.4169H210.867V13.6351H199.451C199.263 13.6351 199.078 13.6638 198.905 13.7195C198.732 13.7752 198.575 13.8568 198.442 13.9597C198.31 14.0626 198.205 14.1848 198.133 14.3193C198.061 14.4537 198.024 14.5978 198.024 14.7434C198.024 14.8889 198.061 15.033 198.133 15.1675C198.205 15.3019 198.31 15.4241 198.442 15.527C198.575 15.6299 198.732 15.7115 198.905 15.7672C199.078 15.8229 199.263 15.8516 199.451 15.8516H207.304C208.191 15.8423 209.065 16.0228 209.829 16.3733C210.567 16.7137 211.182 17.1936 211.618 17.7684C212.069 18.3626 212.301 19.0418 212.289 19.7317Z" fill="#3A3A3A"/>
<path d="M232.808 17.5143C232.817 18.3252 232.613 19.1289 232.208 19.8764C231.416 21.3375 229.929 22.5049 228.057 23.1355C227.097 23.456 226.062 23.6181 225.017 23.6118H218.595V21.3944H225.017C225.886 21.3866 226.737 21.2038 227.487 20.8638C228.238 20.5238 228.861 20.0383 229.298 19.4548C229.737 18.8656 229.964 18.1952 229.954 17.5143C229.961 16.8373 229.739 16.1709 229.31 15.5814C228.881 14.992 228.261 14.5002 227.512 14.1551C226.756 13.8076 225.893 13.6277 225.015 13.6351H217.162V28.0464H214.309V11.4169H225.011C226.056 11.4108 227.091 11.5733 228.051 11.894C229.923 12.5247 231.41 13.692 232.202 15.1531C232.609 15.9 232.815 16.7034 232.808 17.5143Z" fill="#3A3A3A"/>
<path d="M253.272 15.2979C253.28 15.9833 253.048 16.6575 252.601 17.2484C252.167 17.8298 251.548 18.3146 250.803 18.6562C250.039 19.0067 249.165 19.1872 248.277 19.178H237.346C237.743 19.8257 238.36 20.3772 239.13 20.7734C239.918 21.1863 240.849 21.4027 241.799 21.3935H251.131V23.6109H241.799C240.754 23.6172 239.719 23.4551 238.758 23.1346C237.829 22.8232 236.986 22.3751 236.276 21.8152C235.566 21.257 234.999 20.5987 234.607 19.8756C233.807 18.3625 233.807 16.6653 234.607 15.1522C235 14.4292 235.566 13.771 236.276 13.2126C236.988 12.6525 237.833 12.2047 238.764 11.8941C239.724 11.5733 240.76 11.4108 241.805 11.4169H248.283C249.171 11.4082 250.044 11.5886 250.809 11.9387C251.551 12.2784 252.17 12.7591 252.607 13.3356C253.056 13.9301 253.285 14.6089 253.272 15.2979ZM248.277 16.9607C248.845 16.9607 249.389 16.7855 249.791 16.4737C250.192 16.1618 250.418 15.7389 250.418 15.2979C250.418 14.8569 250.192 14.434 249.791 14.1222C249.389 13.8103 248.845 13.6351 248.277 13.6351H241.799C240.997 13.6282 240.206 13.7805 239.502 14.0777C238.815 14.3681 238.224 14.7779 237.775 15.2752C237.319 15.7752 237.025 16.3535 236.918 16.9607H248.277Z" fill="#3A3A3A"/>
<path d="M260.75 23.6118H260.036C259.154 23.6185 258.285 23.4384 257.524 23.0909C256.776 22.7538 256.152 22.2727 255.712 21.694C255.262 21.0999 255.03 20.4211 255.042 19.7317V6.98312H257.896V19.7317C257.896 20.1725 258.122 20.5952 258.523 20.9069C258.925 21.2186 259.469 21.394 260.036 21.3944H260.75V23.6118Z" fill="#3A3A3A"/>
<path d="M0 0.73999V31.26H46.4776V0.73999H0ZM20.8722 27.4291H7.08205L2.34427 23.7502H16.1755V8.2161H11.4389V16L6.75033 12.3576V4.57002H20.8722V27.4291ZM35.0387 23.7866V16L39.7272 19.6424V27.4263H25.5889V4.57002H39.3967L44.1333 8.24979H30.281V23.7839L35.0387 23.7866Z" fill="#3A3A3A"/>
</g>
<defs>
<clipPath id="clip0_527_374">
<rect width="260.75" height="30.52" fill="white" transform="translate(0 0.73999)"/>
</clipPath>
</defs>
</svg>
