<svg width="49" height="48" viewBox="0 0 49 48" fill="none" xmlns="http://www.w3.org/2000/svg">
<path d="M23.9895 20.817C24.072 20.6495 24.1998 20.5085 24.3583 20.4099C24.5168 20.3113 24.6998 20.259 24.8865 20.259C25.0732 20.259 25.2562 20.3113 25.4147 20.4099C25.5732 20.5085 25.701 20.6495 25.7835 20.817L28.7685 26.865C28.8401 27.0106 28.9461 27.1365 29.0773 27.232C29.2085 27.3275 29.361 27.3896 29.5215 27.413L36.1965 28.383C36.381 28.41 36.5543 28.488 36.6968 28.6082C36.8393 28.7285 36.9453 28.8861 37.003 29.0635C37.0606 29.2408 37.0675 29.4307 37.0229 29.6117C36.9783 29.7928 36.8839 29.9577 36.7505 30.088L31.9205 34.796C31.8044 34.9091 31.7174 35.0488 31.6673 35.203C31.6171 35.3571 31.6052 35.5212 31.6325 35.681L32.7725 42.329C32.8039 42.5128 32.7833 42.7016 32.713 42.8743C32.6427 43.047 32.5255 43.1966 32.3747 43.3062C32.2239 43.4158 32.0455 43.4811 31.8596 43.4946C31.6736 43.5082 31.4876 43.4696 31.3225 43.383L25.3525 40.245C25.209 40.1695 25.0492 40.13 24.887 40.13C24.7248 40.13 24.5651 40.1695 24.4215 40.245L18.4515 43.383C18.2863 43.4701 18.1001 43.5092 17.9138 43.4959C17.7275 43.4826 17.5487 43.4174 17.3976 43.3077C17.2465 43.198 17.1291 43.0482 17.0587 42.8752C16.9884 42.7023 16.9679 42.513 16.9995 42.329L18.1395 35.681C18.167 35.5213 18.1552 35.3573 18.1052 35.2031C18.0552 35.0489 17.9685 34.9092 17.8525 34.796L13.0225 30.088C12.8888 29.9578 12.7942 29.7927 12.7494 29.6116C12.7046 29.4304 12.7115 29.2403 12.7691 29.0628C12.8268 28.8852 12.9329 28.7274 13.0756 28.6071C13.2183 28.4868 13.3918 28.4088 13.5765 28.382L20.2515 27.412C20.412 27.3887 20.5643 27.3267 20.6955 27.2314C20.8267 27.1361 20.9327 27.0104 21.0045 26.865L23.9895 20.817ZM36.8865 4H12.8865V14L24.8865 19L36.8865 14V4Z" stroke="#540D6E" stroke-width="4" stroke-linecap="round" stroke-linejoin="round"/>
</svg>
