<svg width="49" height="48" viewBox="0 0 49 48" fill="none" xmlns="http://www.w3.org/2000/svg">
<path d="M45.5117 22.2188H39.7836C38.9727 15.3563 33.5305 9.91406 26.668 9.10312V3.375C26.668 3.16875 26.4992 3 26.293 3H23.4805C23.2742 3 23.1055 3.16875 23.1055 3.375V9.10312C16.243 9.91406 10.8008 15.3563 9.98984 22.2188H4.26172C4.05547 22.2188 3.88672 22.3875 3.88672 22.5938V25.4062C3.88672 25.6125 4.05547 25.7812 4.26172 25.7812H9.98984C10.8008 32.6437 16.243 38.0859 23.1055 38.8969V44.625C23.1055 44.8312 23.2742 45 23.4805 45H26.293C26.4992 45 26.668 44.8312 26.668 44.625V38.8969C33.5305 38.0859 38.9727 32.6437 39.7836 25.7812H45.5117C45.718 25.7812 45.8867 25.6125 45.8867 25.4062V22.5938C45.8867 22.3875 45.718 22.2188 45.5117 22.2188ZM24.8867 35.4375C18.568 35.4375 13.4492 30.3188 13.4492 24C13.4492 17.6812 18.568 12.5625 24.8867 12.5625C31.2055 12.5625 36.3242 17.6812 36.3242 24C36.3242 30.3188 31.2055 35.4375 24.8867 35.4375Z" fill="#540D6E"/>
<path d="M24.8867 18.375C23.382 18.375 21.9758 18.9563 20.9117 20.025C19.8477 21.0891 19.2617 22.4953 19.2617 24C19.2617 25.5047 19.8477 26.9109 20.9117 27.975C21.9758 29.0344 23.3867 29.625 24.8867 29.625C26.3867 29.625 27.7977 29.0391 28.8617 27.975C29.9211 26.9109 30.5117 25.5 30.5117 24C30.5117 22.5 29.9258 21.0891 28.8617 20.025C27.7977 18.9563 26.3914 18.375 24.8867 18.375Z" fill="#540D6E"/>
</svg>
