<svg width="162" height="40" viewBox="0 0 162 40" fill="none" xmlns="http://www.w3.org/2000/svg">
<path d="M21.9998 25.27L26.1498 27.78C26.9098 28.24 27.8398 27.56 27.6398 26.7L26.5398 21.98L30.2098 18.8C30.8798 18.22 30.5198 17.12 29.6398 17.05L24.8098 16.64L22.9198 12.18C22.5798 11.37 21.4198 11.37 21.0798 12.18L19.1898 16.63L14.3598 17.04C13.4798 17.11 13.1198 18.21 13.7898 18.79L17.4598 21.97L16.3598 26.69C16.1598 27.55 17.0898 28.23 17.8498 27.77L21.9998 25.27Z" fill="#540D6E"/>
<path d="M51.4998 25.27L55.6498 27.78C56.4098 28.24 57.3398 27.56 57.1398 26.7L56.0398 21.98L59.7098 18.8C60.3798 18.22 60.0198 17.12 59.1398 17.05L54.3098 16.64L52.4198 12.18C52.0798 11.37 50.9198 11.37 50.5798 12.18L48.6898 16.63L43.8598 17.04C42.9798 17.11 42.6198 18.21 43.2898 18.79L46.9598 21.97L45.8598 26.69C45.6598 27.55 46.5898 28.23 47.3498 27.77L51.4998 25.27Z" fill="#540D6E"/>
<path d="M80.9998 25.27L85.1498 27.78C85.9098 28.24 86.8398 27.56 86.6398 26.7L85.5398 21.98L89.2098 18.8C89.8798 18.22 89.5198 17.12 88.6398 17.05L83.8098 16.64L81.9198 12.18C81.5798 11.37 80.4198 11.37 80.0798 12.18L78.1898 16.63L73.3598 17.04C72.4798 17.11 72.1198 18.21 72.7898 18.79L76.4598 21.97L75.3598 26.69C75.1598 27.55 76.0898 28.23 76.8498 27.77L80.9998 25.27Z" fill="#540D6E"/>
<path d="M110.5 25.27L114.65 27.78C115.41 28.24 116.34 27.56 116.14 26.7L115.04 21.98L118.71 18.8C119.38 18.22 119.02 17.12 118.14 17.05L113.31 16.64L111.42 12.18C111.08 11.37 109.92 11.37 109.58 12.18L107.69 16.63L102.86 17.04C101.98 17.11 101.62 18.21 102.29 18.79L105.96 21.97L104.86 26.69C104.66 27.55 105.59 28.23 106.35 27.77L110.5 25.27Z" fill="#540D6E"/>
<path d="M140 25.27L144.15 27.78C144.91 28.24 145.84 27.56 145.64 26.7L144.54 21.98L148.21 18.8C148.88 18.22 148.52 17.12 147.64 17.05L142.81 16.64L140.92 12.18C140.58 11.37 139.42 11.37 139.08 12.18L137.19 16.63L132.36 17.04C131.48 17.11 131.12 18.21 131.79 18.79L135.46 21.97L134.36 26.69C134.16 27.55 135.09 28.23 135.85 27.77L140 25.27Z" fill="#540D6E"/>
</svg>
