<svg width="46" height="38" viewBox="0 0 46 38" fill="none" xmlns="http://www.w3.org/2000/svg">
<path d="M20.8451 29.0186C20.8451 26.6719 20.2318 24.7039 19.0051 23.1066C18.1358 22.0079 16.9571 21.2853 15.4664 20.9413C13.9998 20.5999 12.6131 20.5759 11.3598 20.8666C10.9331 18.3333 11.6264 15.6506 13.3864 12.8079C15.1464 9.96792 17.4264 7.82925 20.2078 6.39992L15.9918 0.333252C13.8584 1.38925 11.8318 2.72792 9.96511 4.34659C8.07178 5.96525 6.39178 7.82659 4.89844 9.93059C3.40511 12.0346 2.28511 14.4106 1.56511 17.1039C0.845109 19.7973 0.645109 22.5439 0.989109 25.3706C1.43711 29.1039 2.64244 32.0906 4.60511 34.3039C6.56511 36.5466 9.01044 37.6666 11.9331 37.6666C14.5064 37.6666 16.6424 36.8933 18.3331 35.3253C20.0078 33.7893 20.8398 31.6853 20.8398 29.0106L20.8451 29.0186ZM45.1758 29.0186C45.1758 26.6719 44.5624 24.7039 43.3358 23.1066C42.4664 21.9866 41.2824 21.2613 39.7971 20.9279C38.3038 20.5973 36.9358 20.5813 35.6904 20.8693C35.2638 18.3626 35.9304 15.6693 37.6958 12.8159C39.4558 9.98925 41.7304 7.85592 44.5118 6.41592L40.3064 0.333252C38.1731 1.38925 36.1598 2.72792 34.2798 4.34659C32.3692 5.98924 30.6724 7.86524 29.2291 9.93059C27.7464 12.0373 26.6424 14.4106 25.9224 17.1039C25.1939 19.7956 24.9974 22.6036 25.3438 25.3706C25.7864 29.1039 26.9864 32.0906 28.9438 34.3039C30.8984 36.5279 33.3358 37.6426 36.2584 37.6426C38.8371 37.6426 40.9731 36.8693 42.6638 35.3039C44.3358 33.7679 45.1758 31.6639 45.1758 28.9893V29.0186Z" fill="white"/>
</svg>
