<svg width="49" height="48" viewBox="0 0 49 48" fill="none" xmlns="http://www.w3.org/2000/svg">
<path d="M24.8867 18C26.478 18 28.0041 18.6321 29.1294 19.7574C30.2546 20.8826 30.8867 22.4087 30.8867 24C30.8867 25.5913 30.2546 27.1174 29.1294 28.2426C28.0041 29.3679 26.478 30 24.8867 30C23.2954 30 21.7693 29.3679 20.6441 28.2426C19.5189 27.1174 18.8867 25.5913 18.8867 24C18.8867 22.4087 19.5189 20.8826 20.6441 19.7574C21.7693 18.6321 23.2954 18 24.8867 18ZM24.8867 9C34.8867 9 43.4267 15.22 46.8867 24C43.4267 32.78 34.8867 39 24.8867 39C14.8867 39 6.34672 32.78 2.88672 24C6.34672 15.22 14.8867 9 24.8867 9ZM7.24672 24C8.86323 27.3006 11.3733 30.0815 14.4917 32.0265C17.61 33.9715 21.2115 35.0026 24.8867 35.0026C28.5619 35.0026 32.1634 33.9715 35.2818 32.0265C38.4001 30.0815 40.9102 27.3006 42.5267 24C40.9102 20.6994 38.4001 17.9185 35.2818 15.9735C32.1634 14.0285 28.5619 12.9974 24.8867 12.9974C21.2115 12.9974 17.61 14.0285 14.4917 15.9735C11.3733 17.9185 8.86323 20.6994 7.24672 24Z" fill="#540D6E"/>
</svg>
