<svg width="40" height="40" viewBox="0 0 40 40" fill="none" xmlns="http://www.w3.org/2000/svg">
<path d="M11 12C12.5913 12 14.1174 11.3679 15.2426 10.2426C16.3679 9.11742 17 7.5913 17 6C17 4.4087 16.3679 2.88258 15.2426 1.75736C14.1174 0.632141 12.5913 0 11 0C9.4087 0 7.88258 0.632141 6.75736 1.75736C5.63214 2.88258 5 4.4087 5 6C5 7.5913 5.63214 9.11742 6.75736 10.2426C7.88258 11.3679 9.4087 12 11 12ZM0 17.536C0 15.58 1.582 14 3.536 14H13.07C12.3668 15.2156 11.9977 16.5956 12 18C11.9987 19.1352 12.2395 20.2576 12.7065 21.2922C13.1735 22.3269 13.8558 23.25 14.708 24H12.536C11.4088 24 10.3084 24.3439 9.38179 24.9858C8.45516 25.6276 7.74635 26.5368 7.35 27.592C4.354 26.86 2.496 25.226 1.402 23.406C0 21.072 0 18.672 0 18.254V17.536ZM28 18C28.0024 16.5956 27.6333 15.2156 26.93 14H36.464C38.42 14 40 15.582 40 17.536V18.256C40 18.67 40 21.072 38.6 23.406C37.504 25.226 35.646 26.86 32.65 27.592C32.2539 26.5366 31.5451 25.6273 30.6185 24.9854C29.6918 24.3435 28.5913 23.9998 27.464 24H25.292C26.1442 23.25 26.8265 22.3269 27.2935 21.2922C27.7605 20.2576 28.0013 19.1352 28 18ZM35 6C35 7.5913 34.3679 9.11742 33.2426 10.2426C32.1174 11.3679 30.5913 12 29 12C27.4087 12 25.8826 11.3679 24.7574 10.2426C23.6321 9.11742 23 7.5913 23 6C23 4.4087 23.6321 2.88258 24.7574 1.75736C25.8826 0.632141 27.4087 0 29 0C30.5913 0 32.1174 0.632141 33.2426 1.75736C34.3679 2.88258 35 4.4087 35 6ZM9 29.536C9 27.58 10.582 26 12.536 26H27.464C29.418 26 31 27.582 31 29.536V30.256C31 30.67 31 33.072 29.6 35.406C28.114 37.874 25.226 40 20 40C14.774 40 11.884 37.874 10.4 35.406C9 33.072 9 30.672 9 30.254V29.536ZM20 24C20.7879 24 21.5681 23.8448 22.2961 23.5433C23.0241 23.2417 23.6855 22.7998 24.2426 22.2426C24.7998 21.6855 25.2417 21.0241 25.5433 20.2961C25.8448 19.5681 26 18.7879 26 18C26 17.2121 25.8448 16.4319 25.5433 15.7039C25.2417 14.9759 24.7998 14.3145 24.2426 13.7574C23.6855 13.2002 23.0241 12.7583 22.2961 12.4567C21.5681 12.1552 20.7879 12 20 12C18.4087 12 16.8826 12.6321 15.7574 13.7574C14.6321 14.8826 14 16.4087 14 18C14 19.5913 14.6321 21.1174 15.7574 22.2426C16.8826 23.3679 18.4087 24 20 24Z" fill="#3A3A3A"/>
</svg>
