<svg width="48" height="48" viewBox="0 0 48 48" fill="none" xmlns="http://www.w3.org/2000/svg">
<path d="M13 28C14.8565 28 16.637 27.2625 17.9497 25.9497C19.2625 24.637 20 22.8565 20 21C20 19.1435 19.2625 17.363 17.9497 16.0503C16.637 14.7375 14.8565 14 13 14C11.1435 14 9.36301 14.7375 8.05025 16.0503C6.7375 17.363 6 19.1435 6 21C6 22.8565 6.7375 24.637 8.05025 25.9497C9.36301 27.2625 11.1435 28 13 28Z" fill="#3A3A3A"/>
<path d="M38 14C38 14 28 28 13 28C9 28 2 30 2 38V46H24V38C24 33 30 36 38 22L35 19L38 14Z" fill="#3A3A3A"/>
<path d="M13 28C28 28 38 14 38 14L35 19L38 22C30 36 24 33 24 38V46H2V38C2 30 9 28 13 28ZM13 28C14.8565 28 16.637 27.2625 17.9497 25.9497C19.2625 24.637 20 22.8565 20 21C20 19.1435 19.2625 17.363 17.9497 16.0503C16.637 14.7375 14.8565 14 13 14C11.1435 14 9.36301 14.7375 8.05025 16.0503C6.7375 17.363 6 19.1435 6 21C6 22.8565 6.7375 24.637 8.05025 25.9497C9.36301 27.2625 11.1435 28 13 28ZM6 10V4H46V32H40M22 2H30V6H22V2Z" stroke="#3A3A3A" stroke-width="4"/>
</svg>
