<svg width="48" height="48" viewBox="0 0 48 48" fill="none" xmlns="http://www.w3.org/2000/svg">
<path fill-rule="evenodd" clip-rule="evenodd" d="M21.3703 37.7143C20.7687 36.6712 19.9029 35.8049 18.8602 35.2025C17.8175 34.6002 16.6345 34.2831 15.4303 34.2831C14.2261 34.2831 13.0431 34.6002 12.0004 35.2025C10.9576 35.8049 10.0919 36.6712 9.49029 37.7143H3.42857C2.51926 37.7143 1.64719 38.0755 1.00421 38.7185C0.361224 39.3615 1.78814e-07 40.2336 1.78814e-07 41.1429C1.78814e-07 42.0522 0.361224 42.9243 1.00421 43.5672C1.64719 44.2102 2.51926 44.5714 3.42857 44.5714H9.49029C10.0919 45.6146 10.9576 46.4809 12.0004 47.0832C13.0431 47.6856 14.2261 48.0027 15.4303 48.0027C16.6345 48.0027 17.8175 47.6856 18.8602 47.0832C19.9029 46.4809 20.7687 45.6146 21.3703 44.5714H36.8571C39.8124 44.5714 42.6466 43.3975 44.7363 41.3078C46.826 39.2181 48 36.3839 48 33.4286C48 30.4733 46.826 27.6391 44.7363 25.5494C42.6466 23.4597 39.8124 22.2857 36.8571 22.2857H35.0846C34.4832 21.2418 33.6173 20.3747 32.5742 19.7718C31.5312 19.1689 30.3476 18.8515 29.1429 18.8515C27.9381 18.8515 26.7546 19.1689 25.7115 19.7718C24.6684 20.3747 23.8025 21.2418 23.2011 22.2857H12C10.636 22.2857 9.32792 21.7439 8.36345 20.7794C7.39898 19.815 6.85714 18.5068 6.85714 17.1429C6.85714 15.7789 7.39898 14.4708 8.36345 13.5063C9.32792 12.5419 10.636 12 12 12H12.9189C13.5207 13.0424 14.3863 13.9079 15.4287 14.5097C16.4711 15.1115 17.6535 15.4283 18.8571 15.4283C20.0608 15.4283 21.2432 15.1115 22.2856 14.5097C23.3279 13.9079 24.1936 13.0424 24.7954 12H37.7143V15.4286C37.7137 15.7681 37.8139 16.1001 38.0022 16.3826C38.1905 16.6651 38.4585 16.8853 38.7721 17.0153C39.0857 17.1453 39.4309 17.1792 39.7639 17.1128C40.0968 17.0464 40.4025 16.8827 40.6423 16.6423L47.4994 9.78516C47.8208 9.46368 48.0013 9.02773 48.0013 8.57316C48.0013 8.11859 47.8208 7.68264 47.4994 7.36116L40.6423 0.504017C40.4027 0.263859 40.0973 0.100166 39.7647 0.0336571C39.4321 -0.0328522 39.0872 0.000808716 38.7737 0.130386C38.4602 0.259964 38.1922 0.47963 38.0036 0.761581C37.8151 1.04353 37.7144 1.3751 37.7143 1.7143V5.14288H24.7989C24.1975 4.09893 23.3316 3.23186 22.2885 2.62897C21.2454 2.02608 20.0619 1.70866 18.8571 1.70866C17.6524 1.70866 16.4688 2.02608 15.4258 2.62897C14.3827 3.23186 13.5168 4.09893 12.9154 5.14288H12C10.4241 5.14288 8.86371 5.45326 7.4078 6.05632C5.95189 6.65937 4.62902 7.54329 3.51472 8.65759C2.40042 9.7719 1.5165 11.0948 0.913446 12.5507C0.310389 14.0066 0 15.567 0 17.1429C0 18.7187 0.310389 20.2792 0.913446 21.7351C1.5165 23.191 2.40042 24.5139 3.51472 25.6282C4.62902 26.7425 5.95189 27.6264 7.4078 28.2294C8.86371 28.8325 10.4241 29.1429 12 29.1429H23.2046C23.8064 30.1852 24.6721 31.0508 25.7144 31.6525C26.7568 32.2543 27.9392 32.5711 29.1429 32.5711C30.3465 32.5711 31.5289 32.2543 32.5713 31.6525C33.6137 31.0508 34.4793 30.1852 35.0811 29.1429H36.8571C37.9938 29.1429 39.0839 29.5944 39.8876 30.3981C40.6913 31.2019 41.1429 32.2919 41.1429 33.4286C41.1429 34.5652 40.6913 35.6553 39.8876 36.459C39.0839 37.2628 37.9938 37.7143 36.8571 37.7143H21.3703Z" fill="#3A3A3A"/>
</svg>
